<svg width="114" height="37" viewBox="0 0 114 37" fill="none" xmlns="http://www.w3.org/2000/svg">
<path fill-rule="evenodd" clip-rule="evenodd" d="M18.5 37C28.7173 37 37 28.7173 37 18.5C37 8.28273 28.7173 0 18.5 0C8.28273 0 0 8.28273 0 18.5C0 28.7173 8.28273 37 18.5 37Z" fill="black"/>
<path fill-rule="evenodd" clip-rule="evenodd" d="M22.832 10.84C22.808 10.864 22.76 10.888 22.736 10.888C22.664 10.888 22.64 10.864 22.64 10.792C22.64 10.768 22.664 10.72 22.712 10.672C23.6568 9.77689 24.6589 8.38952 25.2912 7.51405L25.2912 7.51402C25.5744 7.12191 25.7835 6.83249 25.88 6.73598C26 6.61598 26.24 6.59198 26.504 6.59198C26.72 6.59198 26.912 6.59198 26.984 6.66398C27.056 6.73598 27.056 6.90398 27.056 7.16798C27.056 7.31683 26.943 7.428 26.8003 7.56825C26.782 7.5863 26.7632 7.60483 26.744 7.62398C26.6384 7.72956 26.3432 7.9489 25.9471 8.24326C25.0826 8.88566 23.7372 9.88539 22.832 10.84ZM14.144 23.728C15.32 23.392 19.784 18.952 22.472 15.736C20.96 13.768 20.048 13.288 19.112 13.288C17.432 13.288 15.224 15.664 14.264 18.592C13.496 20.968 13.496 22.984 14.144 23.728ZM20.0061 19.1396C19.1772 20.3533 18.1778 21.8164 18.272 22.984C18.296 23.464 18.536 24.328 19.04 24.904C19.112 25.048 20.168 25.048 20.384 24.928C21.92 23.992 23.288 22.696 24.176 21.832L24.032 21.664C23.096 22.672 21.752 23.512 21.152 23.776C20.672 23.608 20.312 23.176 20.288 22.768C20.192 20.752 24.104 14.848 25.664 12.88C25.664 12.832 25.664 12.784 25.64 12.76C25.616 12.712 25.544 12.736 25.448 12.832C24.896 13.408 24.128 14.176 23.768 14.464C22.352 12.928 21.68 12.712 20.504 12.712C18.416 12.712 14.024 15.088 12.488 18.904C11.504 21.232 11.504 24.04 12.632 24.928C12.752 25.024 13.376 25.096 13.592 24.928C15.584 23.2 18.512 20.44 20.624 18.208C20.4483 18.4922 20.2336 18.8065 20.0061 19.1396Z" fill="white"/>
<path d="M47.304 26L50.056 13.04H51.8L54.568 26H52.856L52.264 22.736H49.624L49 26H47.304ZM49.864 21.44H52.024L50.936 15.6L49.864 21.44ZM56.883 26V13.04H59.491C60.355 13.04 61.0697 13.1573 61.635 13.392C62.2003 13.616 62.6163 13.984 62.883 14.496C63.1603 14.9973 63.299 15.6587 63.299 16.48C63.299 16.9813 63.2457 17.44 63.139 17.856C63.0323 18.2613 62.8617 18.608 62.627 18.896C62.3923 19.1733 62.083 19.376 61.699 19.504L63.539 26H61.795L60.099 19.92H58.691V26H56.883ZM58.691 18.624H59.379C59.891 18.624 60.307 18.56 60.627 18.432C60.947 18.304 61.1817 18.0853 61.331 17.776C61.4803 17.4667 61.555 17.0347 61.555 16.48C61.555 15.7227 61.4163 15.1787 61.139 14.848C60.8617 14.5067 60.3123 14.336 59.491 14.336H58.691V18.624ZM66.2759 26V13.04H68.0519V26H66.2759ZM72.5726 26V14.384H70.3806V13.04H76.5086V14.384H74.3806V26H72.5726ZM78.0228 26L80.7748 13.04H82.5188L85.2868 26H83.5748L82.9828 22.736H80.3428L79.7188 26H78.0228ZM80.5828 21.44H82.7428L81.6548 15.6L80.5828 21.44ZM91.714 26L95.202 13.04H96.69L93.186 26H91.714ZM100.892 26V15.28C100.882 15.2907 100.759 15.3227 100.524 15.376C100.3 15.4293 100.044 15.4827 99.7563 15.536C99.4683 15.5893 99.2123 15.6373 98.9883 15.68C98.7643 15.7227 98.6469 15.744 98.6363 15.744V14.448C98.8176 14.4053 99.0256 14.3467 99.2603 14.272C99.5056 14.1973 99.7509 14.1067 99.9963 14C100.252 13.8933 100.492 13.76 100.716 13.6C100.951 13.44 101.148 13.2533 101.308 13.04H102.604V26H100.892ZM109.612 26.144C108.865 26.144 108.257 25.9573 107.788 25.584C107.319 25.2 106.972 24.688 106.748 24.048C106.535 23.3973 106.428 22.6773 106.428 21.888V17.52C106.428 16.6773 106.524 15.9093 106.716 15.216C106.908 14.5227 107.233 13.968 107.692 13.552C108.161 13.136 108.801 12.928 109.612 12.928C110.284 12.928 110.849 13.0507 111.308 13.296C111.777 13.5413 112.135 13.8987 112.38 14.368C112.636 14.8373 112.769 15.408 112.78 16.08C112.78 16.1013 112.78 16.1333 112.78 16.176C112.791 16.208 112.796 16.24 112.796 16.272H111.068C111.068 15.6427 110.967 15.1627 110.764 14.832C110.561 14.5013 110.177 14.336 109.612 14.336C109.303 14.336 109.036 14.4373 108.812 14.64C108.588 14.832 108.417 15.1307 108.3 15.536C108.193 15.9413 108.14 16.464 108.14 17.104V19.072C108.311 18.8053 108.551 18.592 108.86 18.432C109.18 18.2613 109.569 18.176 110.028 18.176C110.743 18.176 111.303 18.3307 111.708 18.64C112.113 18.9493 112.401 19.3867 112.572 19.952C112.743 20.5067 112.828 21.1627 112.828 21.92C112.828 22.6987 112.721 23.408 112.508 24.048C112.295 24.688 111.953 25.2 111.484 25.584C111.015 25.9573 110.391 26.144 109.612 26.144ZM109.612 24.72C109.996 24.72 110.295 24.6133 110.508 24.4C110.721 24.176 110.871 23.8827 110.956 23.52C111.052 23.1573 111.1 22.7627 111.1 22.336C111.1 21.824 111.073 21.3493 111.02 20.912C110.977 20.4747 110.855 20.128 110.652 19.872C110.449 19.6053 110.103 19.472 109.612 19.472C109.377 19.472 109.164 19.5147 108.972 19.6C108.78 19.6853 108.615 19.7973 108.476 19.936C108.337 20.064 108.225 20.2027 108.14 20.352V22.288C108.14 22.7253 108.183 23.1307 108.268 23.504C108.364 23.8773 108.519 24.176 108.732 24.4C108.945 24.6133 109.239 24.72 109.612 24.72Z" fill="black"/>
</svg>
